<svg xmlns="http://www.w3.org/2000/svg" version="1.1" xmlns:xlink="http://www.w3.org/1999/xlink" xmlns:svgjs="http://svgjs.dev/svgjs" width="1000" height="1000"><style>
    #light-icon {
      display: inline;
    }
    #dark-icon {
      display: none;
    }

    @media (prefers-color-scheme: dark) {
      #light-icon {
        display: none;
      }
      #dark-icon {
        display: inline;
      }
    }
  </style><g id="light-icon"><svg xmlns="http://www.w3.org/2000/svg" version="1.1" xmlns:xlink="http://www.w3.org/1999/xlink" xmlns:svgjs="http://svgjs.dev/svgjs" width="1000" height="1000"><g><g transform="matrix(1.3065064018813692,0,0,1.3065064018813692,0,11.235955056179762)"><svg xmlns="http://www.w3.org/2000/svg" version="1.1" xmlns:xlink="http://www.w3.org/1999/xlink" xmlns:svgjs="http://svgjs.dev/svgjs" width="765.4" height="748.2"><svg version="1.1" id="Ebene_1" xmlns="http://www.w3.org/2000/svg" xmlns:xlink="http://www.w3.org/1999/xlink" x="0px" y="0px" viewBox="0 0 765.4 748.2" style="enable-background:new 0 0 765.4 748.2;" xml:space="preserve">
<polygon points="479,511 483,510 482,510 "></polygon>
<path d="M151,552c-26,0-38,0-38,2h25C175,553,181,552,151,552z"></path>
<path d="M291,596l10,3c-11.2-6-22.9-11-35-15c-45.8-11.3-92.8-16.6-140-16l-8,1l15,1l27,2l-23,3l-22,2h16
	C185.1,571.3,239.8,577.8,291,596z"></path>
<path d="M149,561l-5,1l5,1l29,2c69,4,95,10,127,26c15,7,26,14,37,26l11,9c1-1-13-16-19-21c-26-22-61-35-107-41
	C204,561,162,560,149,561z"></path>
<path d="M507,485l25-12l-18,7c-46,19-75,38-93,60l-6,8l9-9C444,520,467,505,507,485z"></path>
<path d="M690,607l-5-8c0,0,0,0,0,0c-1.9-1.4-3.5-3.4-4.5-5.6L680,594l-3-4c-1.2-2-2-3-1.9-4.5c-1.9-1.9-3.2-4.3-3.7-6.9L671,579
	l-5-13c1.4-2.1,2.8-4.2,4.2-6.3c-1.6-1.1-2.9-2.5-4-4.1L666,556l-14-20l9-2c1.2-0.5,2.4-1.1,3.6-1.7c-0.5-0.9-1-1.9-1.3-3L652,520
	l-0.3-0.3c-2.6-1.8-4.3-3.7-5.5-6L646,514l-2-4c-2-1-3-4-4-6s-1-3,2-4l2-2l-3-3c-3-2-3-2-1-4l2-3l-3-2l-6-5l-1.3-1.3
	c-1.7-1.3-3.1-3-4.1-4.9c-1.6-1.3-6.6-9-6.6-10.8l2-3c2-2,1-3-5-6c-6-4-13-10-15-15v-8l-1-4l-23,10c-21.1,9.3-42.2,19-63,29
	c-29.4,11-56.8,26.9-81,47l-5,4c-4,0-13-34-17-64v-47c5-20,18-35,35-40c22.5-3.7,45.4,2.5,63,17c7,8,10,14,14,31l4,14
	c7,16,25,20,31,7l3-4c3,1,14,2,18,1c5-2,11-7,13-11l1-8v-6l3,3c5,3,13,6,19,7c4,1,5,1,9-3l6-7c1-4,1-4,2-1c0,2,1,3,3,4c3,1,4,1,8-2
	c3-1,5-3,6-5c3-5,2-12,0-16l-2-3l3-2c5-3,10-11,10-16s-3-7-13-9c-10-1-20-5-19-7l4-2l12-9l5,2l7,3c5,0,10-4,13-9c2-4,2-5,1-8
	s-2-5-4-6c-3-3-9-5-10-4c-3,2,3-9,8-14l4-7l2-2c0,0,0,0,0,0c0.5-0.8,1.3-1.6,2-2c0.1-0.1,0.3-0.2,0.4-0.3c0.1-0.1,0.3-0.2,0.4-0.3
	L674,288c0-0.1,0-0.2,0-0.2c-0.1-0.1-0.2-0.1-0.3-0.2c-0.3-0.1-0.7-0.3-1-0.5c0.3,0.1,0.5,0.2,0.8,0.3c0,0,0,0,0,0
	c-0.8-0.3-1.4-0.7-2.1-1.2c0,0,0,0-0.1,0c0,0,0,0,0,0c0,0,0,0-0.1,0l0,0c-0.1-0.1-0.2-0.1-0.3-0.2c0,0,0,0,0,0l-5-3l-4-3
	c-2,0-2-2-1-6c0-10-5-17-15-17c-6,0-7,1-15,12l-8,8c-2,1-6-3-7-8c-3-8-3-8,4-9c14-3,20-6,23-13c5-9-2-21-14-22c-2,0-4-1-3-2l5-3
	c9-4,4-4-8,0l-4,2l3-5c5-5,5-10,2-16c-2-5-7-7-13-7l-5-1l1-3c2-2,2-2-1-5l-2-3l1,3v6c-1,3-1,3-2-2l-1-8c1-3-3-9-8-11c-4-2-6-3-12-3
	l-9,1c-4,2-3,2-2-7c2-6,2-9,1-11l-0.3-1.1c-0.1-0.1-0.1-0.2-0.2-0.4c-0.1-0.3-0.2-1.1-0.3-1.6L571,146l0.1,0
	c-0.4-0.6-0.8-1.2-1.3-1.9c-0.7-1.2-1.7-2.2-2.5-3.3c-2.3-0.2-6.9,2.8-12.3,8.2l-5,5v-5l3-11v-13h-7l-9,2l-10,8l-8,8v-10
	c-1-1,0-3,1-4l5-6c2-5,2-9,0-15c-1-3,8,5,11,10l3,6c0,2,1,2,3-1c2-6-6-15-16-19c-7-3-11-3-17-1c-8,2-8,2-8-2c-1-4-4-7-8-9
	c-5-3-10-3-14-1c-3,2-5,0-3-2c2-1,2-1-2-4s-12-4-17-3h-3l2-6c0-3,0-4-3-6c-3-4-7-4-11-2c-7,4-12,10-14,19l-3,6c-2,0-2,0-2-4l-5-11
	l-3-6l2-3c4-3,9-4,15-2c2,1,4,2,5,1c2-2-7-7-13-7l-7,2c-4,2-5,3-5,6l-1,2l-5-1c-4,0-5,0-10,5c-6,7-7,6-1-2c4-5,5-6,5-10s-3-11-6-14
	c-6-5-17-6-23-2c-6,5-10,12-9,18c1,3,7,11,10,11l1,1c0,2-1,2-3,0l-12-10h-4l-4-2c-6-6-20-6-23,0c-1,3,0,3,4,2c5-2,11-2,14,1l3,2
	l-3,5l-3,11l-1,5l-3-5c-2-6-5-10-10-14c-3-3-4-3-9-3c-7,0-9,2-8,10l1,5l-4-2c-7-3-18,1-18,7c0,2,0,2-2-1c-3-3-8-3-14,0
	c-5,2-9,7-10,13l-1,5l-6-2c-13-5-25,0-25,10c0,6,4,12,10,16s7,6,7,13v4l-4-4c-3-1-8-6-12-10c-4.6-4.6-7.5-5.8-11-7.5
	c-0.6-0.2-1.1-0.3-1.7-0.5c-1.2-0.1-2.2-0.3-2.9-0.6c-1.3-0.2-2.5-0.1-3.8,0.3c-5.7,2-2.3,5.7-2.3,9.4c0,0.1,0,0.3,0,0.4L214,154
	l-6-5c-7-6-12-8-16-6c-0.1,0-0.1,0-0.2,0.1c-0.1,0.2-0.2,0.4-0.4,0.5c0,0.1-0.1,0.1-0.1,0.1c-0.2,0.8-0.3,1-0.5,2.3
	c-0.1,0.7-0.1,1.6-0.1,2.5c0.2,0.9,0.3,2.2,0.3,3.5l1,11l2,6l-7-1c-6-2-7-2-11,0c-6,2-10,6-14,12c-2,5-2,5-1,11l1,7l-5-2
	c-6-3-14-3-19-1c-6,5-8,18-3,22l3,3h-3c-3,0-4,1-2,3c2,1,3,3,1,2s-9,2-12,6c-8,8-6,21,4,26c3,2,19,4,24,5c2,0,1,3-1,8c-3,6-7,9-12,9
	l-4,1l-6-10l-7-12c-2-4-9-3-14,1c-5,5-6,14-2,19c1,1,1,2-3,3l-4,1l-3,4c-2,3-2,4-1,9l4,8c3,3,7,8,10,14c1,1-1,1-3,1c-7,1-12,5-12,13
	c0,10,12,17,21,11l5-2l9,6l8,4l-7,4l-12,5c-16,4-19,13-8,24l4,5l5-1h6l-2,4l-1,11c1,9,2,11,7,9c4-2,4-1,9,3c6,5,11,6,18,3l11-5l5-4
	v5c2,10,7,16,19,19c6,2,8,2,11,1c4-1,4-1,4,1c0,4,4,8,7,9c10,3,22-7,26-22c6-22,10-29,19-39c7-7,12-11,26-17c15-7,17-7,32,0
	c16,8,24,16,31,31l5,9c13.6,25,18.5,53.9,14,82c-1,11-7,40-8,39l2-11c5-26,6-44,4-61c-2-13-4-21-5-20c1.3,9.6,2,19.3,2,29
	c0,13,0,15-3,29c-5,17-7,25-8,24l4-17c4-16,6-30,5-30c-4,19.1-9.7,37.9-17,56c11.9-36.8,15.3-75.7,10-114c1.9,34.8-3.9,69.7-17,102
	l-3,5c-29.7-31.8-67.3-55.3-109-68l-36-17c-5-3-5-1,0,3c6,4,13,7,40,19c44,18,62,29,84,49c8,8,8,9-1,2c-19-16-43-29-78-42
	c23.2,10,45.6,21.7,67,35l15,11c18.2,18.3,33.7,39.2,46,62l6,13c0,3-1,2-4-2c-6-8-19-21-29-28c-31-23-59-36-105-48
	c-56-16-79-24-85-28l-2-2l5-5l7-9l3-4l14,7c22,10,34,15,63,24c40,12,59,20,83,37l19,14l7,7l-6-7c-12-14-34-29-56-39
	c-11-5-21-8-62-21c-18-7-40-15-51-21l-8-4l6-6c10-10,15-20,12-22c0,0-3,2-5,6c-3,6-15,20-17,20l-0.2-0.8c-0.5,0.9-1.1,1.7-1.8,2.5
	c-0.1,0.8-0.5,1-1,1c-0.4,0.4-0.8,0.7-1.3,1.1l0.3,0.3l-7,9c-9,9-10,11-7,13c2,2,2,2-1,5l-4,5c-0.5,1.1-0.8,1.6-2-0.2
	c0.3,1.3,0.2,2.6-0.2,3.9l0.2,0.3l-0.5,0.8c-0.6,1.6-1.7,3.1-2.9,4.4l-9.2,13.8c-0.3,0.6-0.6,1.1-1,1.7c-2,2.7-4.6,5.3-7.5,7.5
	c-1.8,1.7-2.6,2.4-3.8,2.4c-0.8,0.4-1.7,0.8-2.5,1.2c-0.2,0.4-0.4,0.9-0.5,1.3c0,0,0,0,0,0l2,1l-2,1l-0.7-0.4
	c-0.2,0.4-0.4,0.9-0.6,1.3c3.8,1.7,6.4,2.4,10.3,3l8,2c0.9,0.9-0.8,3.7-9.5,14.2c-0.1,2.1-0.7,4.1-1.8,6c1.6-2.8,0.4,0.1,0.2,0.9
	c-0.3,1.1-0.6,2.1-0.9,3.2c-0.7,2.5-1.6,5-2.5,7.5c-0.9,2.8-2.1,5.5-2.9,8.3c0,0.1-0.1,0.2-0.1,0.3c0.2-0.5,0.4-1-0.1,1.4
	c-0.2,1-0.8,2.1-1.2,3c-0.6,1.6-1.1,3.1-1.6,4.6c0,0,0,0.1,0,0.1c-0.2,0.6-0.4,1.2-0.6,1.7c-0.1,1-0.2,2.1-0.6,3.1
	c0.2,0.2,0.3,0.4,0.5,0.6c0,3-3,8-5,8c-0.1-0.1-0.1-0.1-0.2-0.2c-0.1,0.1-0.1,0.2-0.2,0.3c-1.2,1.7-2.5,3.5-3.7,5.4
	c-1.2,2.3-2.2,4.7-3.9,6.8c-1.1,1.4-2.3,2.6-3.6,3.7c1.3,0,2.8,0,4.5,0h11l0.2,0.2c0.4,0,0.7,0,1.1,0c1.8,0.1,3.5,0.3,5.3,0.6
	c-1-0.2-0.9-0.2,0.2-0.1c1,0.1,2,0.1,3.1,0.1c-0.3-0.3-0.6-0.6-0.8-0.9h8c1.6,0.2,2.9,0.4,4,0.6c0.8,0,1.5,0,2.3,0
	c1.9,0.1,3.8,0.3,5.7,0.4l0,0h6.9c3.9-0.7,7.9-0.9,12-0.9l1.1-0.1l0.1,0.1c2.5,0,4.9,0,7.2,0.1c3.7,0,7.3,0.5,10.8,1
	c0.2,0,0.3,0,0.5,0c1.9,0,4.2,0.3,6.2,0.6c1.2-0.7,5.1-0.1,12.2,1.2c24.8,4.7,49.2,11.4,73,20l15,6c25,9,44,19,54,28l5,5l-0.3-0.1
	c0.5,0.4,0.9,0.7,1.4,1.1c1.2,1,2.4,1.7,3.7,2.9c0.5,0.4,0.8,1,0.8,1.6l7.4,7.4c-0.1,0-0.1,0-0.2,0c2.5,1.8,4.2,5,5.9,7.5
	c0.2,0.2,0.3,0.5,0.5,0.7c0.6,0.7,1.2,1.4,1.5,2.2c1.4,1.9,2.7,3.8,3.6,6c0.1,0.2,0.2,0.4,0.2,0.6l2.4,4l2,5l-1.1-0.6
	c0.5,1,0.9,2.1,1.2,3.1c16.2,2.1,32.6,2.3,48.9,0.5c0.2,0,0.3,0,0.5,0c0.5-1.1,1.2-2.1,1.9-3L408,715l3-5l2-5l0.1,0
	c0.5-1.3,1.1-2.5,1.9-3.6c0.2-0.8,0.9-2.2,2-4.4c0.8-1.7,1.7-2.8,3.2-3.7c0.7-1.7,1.7-3.2,2.9-4.4c-0.6-0.9,1.8-3.8,6.9-8.9
	c11-10,18-15,37-25c27.7-12.2,56.5-22,86-29c0.1,0.1,0.2,0.2,0.3,0.3c1.2-0.6,2.4-1,3.7-1.2c0,0,0,0,0,0c17-4.5,34.4-7.5,52-9
	c-0.8,0.6-1.6,1.2-2.5,1.7c4.1-0.8,8.1-1.7,12.3-2.1c1-0.2,2-0.4,3.2-0.6h6c0,0.1-0.1,0.4-0.4,0.7c2.2,0.1,4.3,0.2,6.5,0.4
	c1.6-0.9,2.7-1,3.9-1c1.2,0,1.7,0,0.6,1.2c0.5,0,0.9,0,1.4,0.1c2.5,0.1,5,0.1,7.6,0.1l1.4-1.4h15c0.8-0.2,1.7-0.3,2.6-0.3
	c0.3,0,3.6-0.1,2.9-0.1c1.1-0.1,2.2-0.3,3.2-0.4l0.2-0.3h21L690,607z M644,520c2,2,4,4,3,5l-47,9c-56,10-72,14-100,23
	c-24,8-35,13-50,23c-21,13-37,27-47,42l-10,19l-4,7c9.2-28.7,28.4-53.1,54-69c25-18,60-31,118-44c43-9,70-16,70-18
	c-17.3,3.4-34.7,6.7-52,10c-82,18-119,33-152,60c-11,9-11,9-9,5c4-8,22-23,37-31c21-13,44-21,104-36c23-6,57-17,68-21l7-3l3,7
	L644,520z M423,518c2,5,2,6,0,7c-1,1-4-3-7-15c-4-12-6-20-7-30v-9l3,13C417,501,420,512,423,518z M185,353c-8,3-17,8-21,13
	c-1,1-3,3-4,2l-12-3c0-1,2-5,6-9c4-6,6-8,10-10c5-2,6-2,27-2l21,1l-1,1L185,353z M207,352l-3,4l-7,8l-8,11l-5,8l-16-12
	c-2-1,6-8,14-11C191,355,204,351,207,352z M158,373l-5,7c-3,4-6,6-7,6l-12-4c0,0,6-10,8-11h9L158,373z M170,331c-4,0-28-8-28-9l16-8
	c6-4,10-5,17-6l13-1c4,0,5,0,8,4l4,5h-4c-3,0-6,1-11,5l-11,8C173,330,171,332,170,331z M158,310c0,0-11,8-17,10c-2,2-3,2-3,1
	S157,309,158,310z M132,318c-3,0-18-13-16-15l11-2c11-3,13-2,25,2c7,2,10,4,6,4l-13,5L132,318z M194,294c-4-10-5-14-5-26l1-13
	c1-1,8,3,12,7c2,2,6,7,8,12c3,6,6,9,12,14l6,7l-13,3C196,300,197,301,194,294z M323,133c-4-3-7-5-11-6l-6-2l8-5l10-7l3,2
	c2,2,2,3,2,11v10C330,139,328,138,323,133z M312,132c8,3,14,8,17,15l2,6c-6-4.5-12.8-7.9-20-10c-5-2-5-2-6-6
	C304,131,306,130,312,132z M332,159l4,22c-1,1-10-3-15-6l-6-6l-7-21c2-2,11,2,17,6L332,159z M305,150l3,12l3,9c-1,1-8-3-12-6
	c-4-2-5-4-7-8l-3-9v-4l6,1C303,146,305,147,305,150z M295,141l-6-2l-5-13c0-4,1-5,3-2l13,7l3,7C303,142,304,142,295,141z M285,149
	l2,6l1,7l1,3h1l-4,2l-7,3l-3,1l7-19L285,149z M282,173l8-4c13.1,5.9,26.4,11.2,40,16l10,6c10,9,28,26,31,31l3,5v13c0,10,0,13-2,15
	l-3,4l-40-40l1-10l2-12c0-5-2-11-4-11v14c-1,10-2,13-3,13c-2,0-5-10-6-16c-1-9-2-9-1,0l-1,7c-2,0-12-9-15-13l-3-6c0-1-6-12-7-11l2,5
	c3,6,3,7,0,6c-2,0,3,5,12,13c14,15,18,20,10,15c-7-4-14-7-24-10l-10-4l-5-10C271,178,271,178,282,173z M340,156l13-19c2-3,2-3,4-1
	c5,6,15,19,17,24c1.6,14.6,2.3,29.3,2,44l-1,7l-21-16c-7-6-10-12-13-21C338,167,338,161,340,156z M304,215c2-2,20,10,32,22
	c23,21,34,41,26,47l-4,2c-3,0-37-18-46-24c-8-6-9-6-9-10l1-14l1-16L304,215z M237,273c8,3,12,5,16,9c4,5,19,24,19,26c0,1-2,1-19-5
	c-16-6-17-6-19-10c-2-3-2-6-2-12c0-8,0-8-2-5l-2,8v6c-7.1-5.1-12.6-12-16-20c-5-8-6-10-10-13l-8-3c-6-2-5-4,2-5l9-2h7
	c5,0,20,7,26,13c5,4,12,13,10,12l-20-5C225,267,232,271,237,273z M230,222c8,18,10,24,9,25c-2,2-5,2-10-1c-14-6-18-11-22-25l-1-6
	l2-3c6-6,13-8,21-5c11,3,16,7,22,14c10,14,14,21,13,22l-10,1h-11l-8-17l-9-17C223,207,225,211,230,222z M254,212c0-2,1-2,4-3
	c5-2,15-3,20-3c3,1,4,1,5,6l7,14c8,15,9,17,9,22l-1,5c-7.6-3.1-15.3-6.1-23-9C271,242,254,217,254,212z M289,220c-3-5-4-11-2-11l8,2
	l6,2l1,8v11c0,2-1,3-2,3C299,236,293,227,289,220z M273,164c-2,6-3,9-3,6l-3-4l-8-9c-6-7-6-8-7-14c0-10,0-10,8-8l7,1l4,8
	C275,153,276,154,273,164z M274,200l-10,2l-11,2c-1,1-3-1-8-10c-8-14-8-14-2-13l14,1c7,0,8,0,10,3L274,200z M237,177l-9-2l4,3l5,4
	l5,11l5,12l-2,1l-17-6c-4-3-7-11-8-33c-1-7-1-7,4-3l13,4l23,10L237,177z M221,202l-12,3l-10,4c-3-1-3,2,0,4c2,2,4,5,5,11l4,10
	c0,2-1,2-9-2l-14-10l-6-6l3-7l4-11l1-5l12-1c11-1,11,0,18,6L221,202z M184,229l-6,2l-13,4c-9,4-11,3-17-4c-6-6-7-7-3-7
	c8.5-2.5,17.2-4.5,26-6l7,5L184,229z M158,241l7-1l3-1c1,1,3,7,2,8l1,5l4,11l2,7l-5-3l-9-7c-6-2-6-3-6-6l-1-8l-2-6L158,241z
	 M182,251h4l-1,8l-1,12l-1,4l-1-3c-1-4.1-2.3-8.1-4-12C176,251,176,251,182,251z M174,243l-1-5c0-1,9-4,15-4c4,0,18,6,18,8l-19,3
	C175,247,175,247,174,243z M223,304c19.4-0.5,38.5,4.7,55,15c11,5,30,15,36,20l11,6l5,4c10.1,5.3,19.8,11.3,29,18l5,3c3,0,6-5,8-11
	l3-6l-4,19c-1,3,0,7,2,7l2-8c1.9-18.3,1.3-36.9-2-55c-1-6-2-7-10-15c-9-9-22-18-34-23c-7-4-8-4-20-4c-15,0-19,1-30,11l-8,7l-6-9
	c-11-13-22-30-22-32c0-3,3-4,14-3c14,1,23,4,44,17l20,9c9,3,13,4,29,13c14,7,16,7,20,1l3-12c0-6,0-6,1-4c1,3,0,11-2,17
	c-4,10-4,9-1,7l3-6c2.2,29.6,2.8,59.3,2,89c-1,3,0,5,2,12c3,10,4,17,1,8c-4-9-9-18-15-23c-11-11-33-26-43-29l-52-12
	c-27-5-49-13-61-22l-7-6C201,305,208,304,223,304z M368,327c-1-13-3-18-9-25c-8-10-8-10,0-2c11,10,12,13,13,28c0,13-1,23-4,30
	c-2,5-5,7-8,5c-1-1-1-1,1-2C367,360,370,345,368,327z M360,329l-1,14l-2,4c-20.5-11.7-41.5-22.4-63-32c-8-4-10-5-14-10
	c-6-9-6-10,0-16c7-7,13-10,18-11c15-2,44,12,55,26C359,311,360,317,360,329z M316,330.8c-8.5-4.9-17.1-9.5-26-13.8
	C299.2,320.6,307.9,325.3,316,330.8z M380,317c-0.5-17,0.2-34.1,2-51c-0.7,40.4,0.7,80.8,4,121c9.6,40.3,15,81.6,16,123l2,27
	c1,6-2,4-3-2l-2-31c-1-35-4-55-10-86c-5-19-6-31-7-56L380,317z M469,159c-2,4-3,5-8,8l-12,4l3-6l5-12l4-6l14-3L469,159z M478,148
	c1-2,2-1,4,3l3,6l-4,4c-4,3-8,5-8,2C474.8,158,476.4,153,478,148z M459,135c-2,8-2,8-8,10l-12,5c-6,3-6,3-4-5c3-8,8-11,21-14l3-1
	V135z M435,156c9-5,19-9,19-7l-8,18c-1,4-3,6-6,7l-13,6c1.5-4.9,2.5-9.9,3-15C431,159,431,159,435,156z M435,183c11-5,38-15,41-15
	c2,0,9-6,9-8c1-4,3-2,4,6c3,9,2,15-2,24c-4,8-6,10-14,13c-7,2-14,6-18,9c-3,3-3,1,1-7c4-10,13-25,19-30c5-5,5-7-1-3
	c-5,4-16,21-23,34l-5,11l-2-3c-5-4-6-10-6-20l-1-8c-1,1-2,5-1,12c0,9,0,11,3,18s3,8,2,11c-2,4-15,19-22,25c-9.3,9.5-18,19.5-26,30
	l1,3l14-14l18-17l-13,14c-15,15-18,19-19,22l-2,5c-2,1,0-13,2-20v-22c-3-25-3-26,16-48C423,189,424,189,435,183z M531,174
	c-6,3-17,4-17,3l6-4l8-5l8-3l8-2l2-1l1,14c0,16,1,14-10,20l-7,4l-1-3l1-9l2-7c-1-1-4,8-5,14c-1,5-2,7-6,7c-3,0-3,0-1-9l-1-2
	c-2,0-4,6-3,8c0,3,0,3-20,2l-7-1l4-7l3-8l15-3c18-3,25-5,26-7C538,172,538,172,531,174z M559,250c17,1,19,1,20,4c4,12,0,30-9,40
	c-4,3-4,4-11,4l-14-1c-10-1-10,0-1-16c8-14,12-18,23-23c9-4,11-5,5-4c-5,1-15,6-20,10c-2,1-6,9-10,15c-9,15-12,19-18,20l-7,2l-3,1
	l1-13c0-11-1-23-3-29c0-2,1-3,8-7c11-6,13-7,21-5L559,250z M542,242l7-4c6-3,7-4,15-3l14,2c5,1,5,1,5,5c0,5-2,5-8,4h-14
	C552,246,542,244,542,242z M637,300c7,0,12,2,12,4c0,1-11,11-15,13c-1,2-4,3-5,3l-13-6l-11-7c-1-1,1-1,13-5C628,299,630,299,637,300
	z M630,296l6-4l6-5l1,5v5h-6L630,296z M611,317l12,6l1,1l-2,1l-12,3l-17,4c-5,1-6,0-9-2l-3-2l9-9l10-8C600,311,606,313,611,317z
	 M627,384c-8,3-9,3-15-3c-9-8-9-9-4-10l8-2l5-1l4,6C630,381,631,382,627,384z M626,366c2,0,11,13,11,16s-1,2-7-8
	C625,367,624,366,626,366z M614,365l-7,1c-5,1-7,1-8-1c-2-3-14-10-21-13l-28-6l-5-1l4-1l19-1c17,0,25,2,32,6
	C604,352,615,364,614,365z M594,369l-3,1l-8,6c-6,5-7,5-7,4c0-2-13-18-18-24l-5-5l20,4C581,358,594,366,594,369z M538,339l-9,1
	l-16-2c17.8,0.5,35.6-1.1,53-5c11-3,12-3,14-1c2,3,2,3,0,4S542,340,538,339z M539,333l-30,2h-19l4-3l15-17c4-7,6-8,20-10
	c21.7-1.3,43.6,0,65,4C578.9,322.9,559.5,331.4,539,333z M407,335c-3-4-5-10-5-22c0-13,2-20,10-32c12-20,27-31,55-42l11-3
	c-1.2,7.6-1.5,15.3-1,23l1,15l-3,6c-3,6-12,20-17,25l-14,10l-20,15C414,339,411,339,407,335z M407,352l-3,2c-3-1-7-4-9-8s-2-6-2-19
	v-15l1,11l2,15c1,7,6,13,10,13C408,351,408,351,407,352z M491,242c-2,6-7,13-9,13v-21c1-3,2-3,4-3c3,0,18-6,19-8l-8,1
	c-11,4-11,4-14-6c-2-9-3-10,0-11h32l4,1v10l-6,33l-5,3l-14,8l-8,5l-2-3l4-11c4-7,5-10,5-14v-4L491,242z M482,227c0,3-2,5-13,8l-22,8
	l-12,5c3.2-4.2,6.3-8.5,9-13l10-12c3-3,21-14,23-14L482,227z M470,302l9-14l8-13c4-4,17-12,19-12c3,0,4,27,1,37l-2,4l-6,1l-14,1
	l-12,1h-5L470,302z M397,212l9-10l7-7l-7,8L397,212z M414,188l-14,13l-10,8c-0.5-9-1.1-18-2-27l-1-18l3-5l20-24c1,0,8,9,12,17
	c3,7,3,8,3,13C424,172,419,182,414,188z M388,212c-2,2-3-9-3-23l-1-17l1,12l2,20L388,212z M382,92l-6-9c-3-3-2-4,3-9c3-3,5-3,9,3
	l2,4l-4,5L382,92z M404,480c-1-29-3-39-7-57c-7-27-10-51-11-117c0.5-17,0.5-34,0-51c2,11,2,16,3,48c1,40,1,44,7,50l7,4c3,1,4,0,9-6
	l11-12l8-9l4-4l-5,6l-9,12l-10,13l-9,11l-5,6v-13c-1,0-2,2-4,9v24l5,29c7,24,8,36,9,69c1,13,2,29,4,38c0,5-1,6-2,3
	C407,529,405,505,404,480z M409,369l-9,8c0-1,6-8,14-15l19-22c12-16,27-24,48-26c16-2,20-2,20-1c-6.7,9.9-16.6,17.3-28,21l-36,15
	l-13,7L409,369z M509,372c-1-1,7-1,18-2c18,0,25-1,27-3c-15.3-0.6-30.7-1-46-1c-8,0-9-1-18-5c-16-8-32-11-39-8l2,1l16,2
	c-1,1-5,0-10-1h-16c-7,2-16,6-22,12c-7,5-8,5-2-1c11-11,20-14,48-19c16-2,43-2,53,0l10,1c3,0,6,1,14,5l14,11l17,24l-29,1
	c-6-1-11-2-18-5C518,380,509,374,509,372z M554,436c-3,3-8,3-12,0c-7-4-10-11-13-24l-5-17l-2-7l2,1c12,4,14,6,23,22
	C557,429,558,432,554,436z M579,428c-2,1-11,1-15-1c-6.9-10.1-13.9-20.1-21-30l-2-4l8,1c8,0,9,1,12,3l7,10l8,13
	C579,425,580,427,579,428z M586,423l-3,3l-20-32c1-1,15,0,17,1l6,4c4,4,4,4,4,10C590,417,589,420,586,423z M593,397c-3,0-5-3-12-12
	c-1-1,0-2,7-7l8-7l5,6l9,10l5,4l-10,3L593,397z M626,409c-4,3-11,4-17,2l-9-5l-5-4l10-3c17-5,19-6,22-4l4,3C632,401,629,407,626,409
	z M646,402c-2,3-6,3-8,1l-2-5c0-3-1-4-5-6l-5-2l3-1c5-4,6-4,7,0c0,3,3,3,4-1c0-3,0-3,3-1C648,389,650,397,646,402z M648,364
	c8,1,9,2,6,8c0,2-3,5-4,6l-4,4l-7-8l-7-9C632,363,640,362,648,364z M631,358c1,1,1,2-3,2c-9,3-8,3-14-4l-6-6L631,358z M643,329v4
	c0,3-4,7-12,12c-4,2-8,4-9,3l-30-9c6.4-1.9,12.7-3.9,19-6c12-4,16-5,24-5C642,328,644,328,643,329z M636,322c-1-2,15-16,18-17l3,1
	l-9,14L636,322z M663,337c-4,2-7,2-11,0c-3-2-3-2-3-6c1-5,2-7,6-8C665,321,671,332,663,337z M660,285c3,2,3,3,4,6l-2,6c-1,2-2,3-5,2
	c-7,0-9-1-10-7v-6C651,284,656,283,660,285z M646,262c8,0,12,9,7,14c-3,3-5,3-10,0C634,269,636,262,646,262z M630,275c4-4,5-5,5-3
	l3,5l3,4c-3.7-0.3-7.3-0.6-11-1l-4-1L630,275z M617,286l3-3l7,1c9,2,10,3,6,6l-12,6l-13,3C608,297,614,289,617,286z M615,278
	c1,2,1,3-4,8l-9,11c-3,4-3,5-7,4l-21-2c2.9-3.9,5.6-7.9,8-12c7-13,15-20,25-23l2,1C609,267,612,274,615,278z M587,249l-1-6
	c0-4,0-5,2-4l6,1l5,2l-5,9l-6,15l-2,6l-2-15c0-5,0-5,2-5l2-2L587,249z M605,241l4-4l3-2l-1,4l-1,12v7l-5,2l-9,5l-5,1L605,241z
	 M611,231l-6,4c-2,2-7,2-14,0c-8-3-18-4-23-5h-5l8-7l10-6l30,6C619,223,619,227,611,231z M623,230c6-2,12,1,15,7c3,7-1,12-12,16
	l-9,2c-2,1-2,0-2-8C616,236,618,231,623,230z M607,199h7c4,1,7,6,7,10c0,3-2,5-5,7s-6,2-17,0l-9-2l6-6C600,204,604,200,607,199z
	 M598,187c2,6,1,9-3,14l-7,8c-3,3-6,3-7,2l-1-9v-9l4-1l12-6C597,184,597,184,598,187z M583,180c4-8,5-9,9-7l4,4c1,4-1,6-8,9
	C579,189,578,188,583,180z M575,173h6l-3,7c-3,6-4,8-5,7l-7-1h-7l2-2C565,178,571,174,575,173z M551,165c0-7,1-7,4-11l11-6l1,3
	c1,5-1,16-4,21l-7,10l-5,5V165z M557,190l7,1c12,1,11,1,11,10c-1,10-3,14-8,18c-4,5-18,14-20,14l3-10c2-7,4-10,6-12l3-3l-3,1
	c-3,1-3,0-4-2c-2-4-2-4-2-1c-1,1-2,3-4,3c-2,2-3,3,0,5v6l-4,10c-2,6-3,6-11,10l-9,4c-3,0-3-4-1-15l2-15c0-7,0-7,3-8c6-1,9-3,20-9
	L557,190z M544,132l6-2l-5,26l-4,4l-5,2h-1l2-4c0-2,0-2-3,1l-3,3v-2l3-11C538,134,537,134,544,132z M532,139l-6,22c-1,2-16,13-23,17
	l-4,2c-2,0-1-3,1-5l14-17C525,143,531,136,532,139z M506,109c7-3,14-1,16,3c1,2-1,8-4,11c-4,4-8,2-12-7l-3-5L506,109z M500,124
	c0-6,1-6,4-1c2,3,3,5,2,6l-3,1C500,131,499,130,500,124z M509,133c5-2,6-1,6,7c0,6,0,7-7,16l-9,12l-3,2l-2-8c-1-9-1-13,3-21
	C499,138,502,136,509,133z M496,117l-1,10c0,7,0,8-3,15l-4,8c-1-1-7-9-7-11c0-1,3-17,5-21c0-2,2-3,8-4l4-1L496,117z M480,95h7
	c4,1,6,3,8,8l2,4l-5,2c-6,2-7,2-10,0C477,106,476,98,480,95z M480,115c2,1,2,2-1,11c-4,12-4,12-6,13l-7,2l-5,1l1-3c1-8,1-9,7-11l5-2
	l-5-1l-5,1l7-6C478,113,478,113,480,115z M470,117l-7,7c-3,0,1-11,5-14l6-1C476,111,476,111,470,117z M462,88c7,0,8,0,9,5
	c1,4,0,8-2,10s-7,3-11,2l-4-3C449,96,454,88,462,88z M459,110h4l-4,8l-3-3c-3-3-10-6-12-6l7,7l8,9c0,1-2,2-7,3l-9,2c-2,1-1-1,2-8
	l3-7l-6,10l-6,11c-0.8-5.4-1.8-10.7-3-16c0-3,0-3,4-6l5-5l2-5l2-3l2,3C451,108,454,110,459,110z M435,82c5-9,12-12,15-7c1,4,0,7-3,7
	l-7,1l-5,2C433,86,433,86,435,82z M431,95c2-5,6-8,17-10h3l-4,6l-9,12c-6,8-6,8-6,5C430,102,430,99,431,95z M430,120l1,9v16
	c-2,10-2,10-6,2l-7-12l-4-4l8-6L430,120z M424,96c2,0,4,17,3,19c-6.7,4.9-13.4,9.9-20,15c-2,1-2,1-2-5l3-13c4-9,3-9-1-1l-4,15
	c-1,8-1,9-4,13l-9,10l-5,5v-13c1-16,1-17,11-28c6-6,9-8,17-12L424,96z M404,76h5c4,2,7,8,8,12v4l-6,3l-7,4c-1.5-4.7-3.2-9.4-5-14
	c-1-3-1-3-3-1l-1,1C395,83,401,77,404,76z M391,90l4-3l4,14l-2,3l-12,12v-8C385,98,386,95,391,90z M372,72l-2-3c-7-10,6-25,17-19
	c7,4,9,13,5,19l-1,3l-4-3c-4-3-6-3-10,0L372,72z M367,96l2-10c2,1.7,4,3.3,6,5l5,6l1,11l-1,11c-3.2-3.8-6.5-7.5-10-11l-4-4L367,96z
	 M353,73c2-1,9,3,11,6l1,7l-2,9l-2,4l-5-2c-2-1-6-3-7-5c-2-2-2-3-2-6C348,81,351,74,353,73z M340,105c1-10,2-11,3-10l9,6
	c8,5,22,18,25,25c2,3,2,7,3,15v12c-1,3-1,3-4-2l-9-11c-7-8-8-9-8-17c-1-4-5-16-6-15l2,6c2,6,3,13,1,14c-5.6-3.5-11.3-6.8-17-10
	C338,117,338,115,340,105z M341,125l8,6l-2,5l-8,11l-4,7c-1.8-9.9-2.5-20-2-30v-4L341,125z M335,108l-2,6l-14-17l-1-6c0-3,0-3,4-3
	s9,1,12,4C336,94,336,100,335,108z M316,78c1-5,3-6,7-4c3,1,8,7,11,12c1,2,1,2-3-1c-5-2-15-3-14-1l-1,2l-1-2L316,78z M316,103
	c0-3,2-1,4,3l3,5l-8,4l-8,5l-5-6l-4-6h5c4,1,6,0,9-2L316,103z M297,88c4-2,9-2,12,1c5,5,3,12-3,15h-4c-5-1-7-2-8-6S294,89,297,88z
	 M290,112l3-3l3,3c5,6,7,11,7,12c-1,2-2,2-8-1l-7-6C287,115,287,114,290,112z M270,101c3-8,11-12,15-7l3,7c0,6,0,7-2,7l-3,2
	c-2,1-2,1-8-1C268,107,267,106,270,101z M274,115c6,1,7,1,8,4l1,13l-1,13l-3,4l-4-7c-3-4-4-8-4-12l-3-11l-2-5L274,115z M264,120l1,7
	c-1,3-1,3-4,2l-5-1l7-12L264,120z M245,125c-6-3-9-8-7-12s7-7,12-6s9,2,9,4l-4,8l-5,8L245,125z M243,148c10,9,23,24,23,27
	c0,1-1,1-6-2l-12-6l-8-5l-5-21L243,148z M226,134c3,3,5,8,7,21l1,8c-1,1-10-3-12-5v-1l2-1l-3-1c-2,0-2,0-3-5l-2-13l-1-7
	C216,129,223,132,226,134z M198,149c2,0,14,10,16,13l2,14l1,13l-1,1l-9-9c-8-10-10-14-10-26C196,151,197,149,198,149z M185,173
	c5,0,11,3,16,8l5,6h-10c-9,0-10-1-10-2l-3-7l-2-5H185z M169,179c2-3,5-5,7-5l6,12c0,1-6,1-11-1C166,184,166,184,169,179z M164,189
	l3,1l9,2l6,2c0,3-3,9-5,13l-4,4c-2,0-8-10-9-17V189z M137,210c0-3,2-9,5-10c6-4,15,1,21,9c4,5,3,5-6,7C144,219,139,217,137,210z
	 M151,257l-22-4l-4-5c-4-7-1-15,6-17c10-4,21,9,21,24C152,256,152,258,151,257z M151,275l5-9c0-3,0-3,2-3c9,3,19,13,26,27l5,9l-3,1
	l-11,1l-8,1l-5-6l-10-10l-5-6L151,275z M144,284c2,0,7,5,11,10l2,4c-6-1-17-5-20-7l-4-4L144,284z M135,295l-6,2l-7,1l-1-5
	c0-5,1-6,2-6c2,0,6,2,9,5L135,295z M128,278l1,2c0,1-1,2-4,2h-3l2-3C126,277,127,277,128,278z M114,261c3-1,4-1,5,1l3,6c1,4,1,4-2,7
	c-4,4-5,4-8,2C104,273,106,264,114,261z M103,300c-5-2-5-9-2-12c4-3,12-4,14-2c3,2,2,9,0,12C113,300,106,301,103,300z M112,336
	c-5,4-12,3-14-4c-2-4,3-9,9-9c4,0,8,4,8,7S114,334,112,336z M107,306c1-2,3-2,11,6l11,8l1,2c-1,1-7,2-10,1C116,321,106,309,107,306z
	 M120,327l1,1l-1,1l-1-1L120,327z M127,340c-5-3-7-5-7-7l8-4c7-2,7-2,13-1c8,3.1,16,6.1,24,9c4,1,3,2-8,5C140,346,137,346,127,340z
	 M146,350l6-1l-2,3l-5,6c-1,3-3,5-4,4l-15-3C125,358,140,352,146,350z M123,373c-3,6-4,8-6,8c-3,1-7-2-9-5c-2-4-1-7,1-9s4-3,10-3
	l8,1L123,373z M128,374l3-8l4,1c4,0,4,0-4,9l-6,8L128,374z M132,400c-3,6-3,6-5,4c-2-3-2-11,1-15c2-4,3-4,10-1l4,2l-4,3
	C136,394,133,397,132,400z M165,405l-9,6c-14,6-26-4-16-13c4-4,5-4,15-1l8,3l4,1l2,1L165,405z M158,393l-9-2l8-8c8-10,7-9,19-1l6,5
	l-3,4c-3,4-4,5-7,5C167.3,394.9,162.7,393.9,158,393z M182,424c-4-4-6-7-7-15v-6l10-10l16,2c1,0-7,19-12,27l-3,5L182,424z M204,426
	c-1,1-3,2-8,2c-7,1-9,0-7-2l8-15l9-15l9-1h8l-3,5l-8,14L204,426z M242,392c-2.4,5.9-4.4,11.9-6,18c-4,14-7,21-12,25s-12,5-15,2l-2-5
	l17-33c3-4,5-5,11-7l8-2L242,392z M270,363c-9,4-27,6-39,5l-8-1l6,2c4,2,8,2,17,2l11,1c0,4-15,13-27,16c-4,1-11,2-24,2h-19l2-4
	c11-18,18-27,28-33c8-6,10-6,17-6c15,0,45,4,50,7L270,363z M115,523c7.8-10.1,14.8-20.8,21-32l4-7c21,9.1,42.8,16.5,65,22
	c55,15,78,24,106,40c34,19,58,47,62,74c4,18,3,23-1,12c-2-7-8-19-16-31l-15-21l3,5l7,10c2,3,1,3-5-4c-20-22-30-30-54-42
	c-19-9-41-16-72-22c-15-4-78-13-79-12c-2,0,25,6,57,11c55,9,70,14,94,26c21,10,28,15,46,34c14.6,12.8,25.9,28.9,33,47c3,5,4,9,4,11
	c-1,4-1,3-3-3c-11.6-31.6-33.9-58.1-63-75c-23-15-63-27-120-35c-47-7-63-9-57-6l59,10c51,7,79,14,105,27c10,5,20,12,23,15
	c-23.2-14.8-49-25.3-76-31l-50-9L115,523z M326,583l-3-2l-2-2l3,2L326,583z M205,619c-2-1-2-1,0-1l5,1H205z M330,669
	c-9-9-13-12-22-17c-15-9-31-15-47-20c5,0.9,10,1.9,15,3c18,6,38,17,48,24c6,5,19,18,19,20S341,679,330,669z M345,672
	c-4-5-16-16-23-21c-31-18.3-65.3-30.2-101-35c34,4,61,11,83,22c10,5,24,14,31,20c5,5,13,14,13,16C348,675,346,674,345,672z M353,662
	c-22-32-60-54-109-61c-26-4-48-5-85-3c8.3-1.2,16.6-2.2,25-3c49-1,88,5,118,20c22,12,38,25,52,45l4,7C357,669,356,667,353,662z
	 M370,663l-8,3c-2,1-2,0-2-1c0-4-12-20-21-29c-18-18-42-30-76-39c-39-10-89-10-147-1l-18,3c-6,1-6,1,0-6l7-17l4-13h7c7,0,10-1,10-3
	h-8c-11,0-12-1-8-5l11-18c21.5,4.1,43.2,7.1,65,9c47,5,82,14,108,26c20,9,44,29,57,46c12,17,26,39,26,42L370,663z M382,537l-1,18
	c-2,0-1-32,1-52c5-46,1-77-13-105c-9-19-21-31-43-42c-7-4-27-11-28-10c20.7,7.2,39.7,18.4,56,33c12,13,20,36,24,68c3,24-1,69-10,104
	l-4,12l4-24c11-51,11-87,0-121c-5-15-13-32-19-38c-3-4-4-4-2-1c8,11,17,33,23,57c5.2,32.2,2.1,65.3-9,96l3-21
	c8.5-29.6,7.1-61.2-4-90c-13-36-15-40-25-50c-6-7-11-11-22-16c-26-13-46-17-80-16c-18,1-51-1-55-2c-2-1-2-2,4-7c7-6,14-9,19-8l13,5
	c17,7,24,8,38,10c28,2,43,5,62,12c18,6,36,17,47,27c13,14,23,43,26,79c1,13,0,28-3,53L382,537z M389,611
	c2.7-14.2,8.3-27.7,16.5-39.5L402,576c-9,13-8,13-7,8c13.1-40.5,41.9-74,80-93c15-8,22-12,55-26c43-18,61-27,66-32c2-3,3-3,2,1
	c-1,2-1,3,1,7c2,5,11,14,15,17l2,1l-3,2c-28.6,17.1-58.7,31.5-90,43c-21,8-39,15-50,21c-12,6-30,18-37,25c25.8-17,53.7-30.4,83-40
	c41-17,65-28,87-41l10-5l1,2c0,3,10,16,14,19l3,2l-4,2c-7,3-27,9-53,15c-67,17-95,26-124,43c-28,15-46,34-58,59l-6,13c0,2,2-2,6-9
	c7-15,14-23,25-34c10-11,20-18,37-27c28-16,55-25,116-40l45-12l17-5c3-1,2,3,0,5c-17,6-47,16-89,27l-30,8c-40,13-77,34-94,52
	c-9,10-25,31-29,40l-5,10C386,639,388,619,389,611z M429,659c19-18,48-34,77-39c12-3,26-4,33-4c-31.9,2.8-62.8,13.1-90,30l-20,16
	C417,673,417,672,429,659z M427,646l2-3l3-2L427,646z M562,618c-28,4-60,12-80,21c-21,8-39,19-52,31l-8,8c-2,0-1-2,4-6
	c17.7-17.3,38.8-30.5,62-39c22-8,56-15,74-16h9L562,618z M674,600c-41-6-82.6-7.7-124-5c-49,3-83,16-109,38c-6,5-7,6-5,3l21-18
	c13-9,39-19,58-23c26-6,51-7,102-5h41c2-2-7-4-42-6c-59-3-114,5-146,22c-23,11-46,33-58,54l-4,7l-5-2l-9-3l-5-2c0-2,14-23,22-33
	c23-29,65-52,118-67c18-5,31-8,67-14l40-7l9-1c1,0,7,6,9,11c-13.6,1.8-27.3,3.5-41,5c7,0.3,14,0.3,21,0h24l2,3
	c-44.4,1.5-88.6,6.8-132,16c-26,6-55,19-74,31c-15,10-33,30-43,46c-6,11-6,13,0,3c32-49,82-75,166-85l67-5l16-1l1,6c3,9,9,22,14,27
	l3,5H674z"></path>
<path d="M200,585c56,4,100,16,126,37l5,4l-9-9c-9-6-32-18-44-22c-53.3-15.4-109.4-18.5-164-9h33C173,584,184,584,200,585z"></path>
<path d="M206,517c-20.6-6.3-41.7-11-63-14L206,517z"></path>
<path d="M405.5,571.5l6.5-8.5C409.7,565.7,407.5,568.5,405.5,571.5z"></path>
<path d="M603,489c5-1.2,10-2.5,15-4C625,482,619,484,603,489z"></path>
<path d="M457,524c0,1,7-3,10-6l-7,4L457,524z"></path>
<polygon points="470,516 474,515 478,512 "></polygon>
<polygon points="583,496 579,497 582,497 "></polygon>
<polygon points="451,528 453,528 455,526 "></polygon>
</svg></svg></g></g></svg></g><g id="dark-icon"><svg xmlns="http://www.w3.org/2000/svg" version="1.1" xmlns:xlink="http://www.w3.org/1999/xlink" xmlns:svgjs="http://svgjs.dev/svgjs" width="1000" height="1000"><g clip-path="url(#SvgjsClipPath1044)"><rect width="1000" height="1000" fill="#ffffff"></rect><g transform="matrix(1.1758557616932324,0,0,1.1758557616932324,50,60.112359550561735)"><svg xmlns="http://www.w3.org/2000/svg" version="1.1" xmlns:xlink="http://www.w3.org/1999/xlink" xmlns:svgjs="http://svgjs.dev/svgjs" width="765.4" height="748.2"><svg version="1.1" id="Ebene_1" xmlns="http://www.w3.org/2000/svg" xmlns:xlink="http://www.w3.org/1999/xlink" x="0px" y="0px" viewBox="0 0 765.4 748.2" style="enable-background:new 0 0 765.4 748.2;" xml:space="preserve">
<polygon points="479,511 483,510 482,510 "></polygon>
<path d="M151,552c-26,0-38,0-38,2h25C175,553,181,552,151,552z"></path>
<path d="M291,596l10,3c-11.2-6-22.9-11-35-15c-45.8-11.3-92.8-16.6-140-16l-8,1l15,1l27,2l-23,3l-22,2h16
	C185.1,571.3,239.8,577.8,291,596z"></path>
<path d="M149,561l-5,1l5,1l29,2c69,4,95,10,127,26c15,7,26,14,37,26l11,9c1-1-13-16-19-21c-26-22-61-35-107-41
	C204,561,162,560,149,561z"></path>
<path d="M507,485l25-12l-18,7c-46,19-75,38-93,60l-6,8l9-9C444,520,467,505,507,485z"></path>
<path d="M690,607l-5-8c0,0,0,0,0,0c-1.9-1.4-3.5-3.4-4.5-5.6L680,594l-3-4c-1.2-2-2-3-1.9-4.5c-1.9-1.9-3.2-4.3-3.7-6.9L671,579
	l-5-13c1.4-2.1,2.8-4.2,4.2-6.3c-1.6-1.1-2.9-2.5-4-4.1L666,556l-14-20l9-2c1.2-0.5,2.4-1.1,3.6-1.7c-0.5-0.9-1-1.9-1.3-3L652,520
	l-0.3-0.3c-2.6-1.8-4.3-3.7-5.5-6L646,514l-2-4c-2-1-3-4-4-6s-1-3,2-4l2-2l-3-3c-3-2-3-2-1-4l2-3l-3-2l-6-5l-1.3-1.3
	c-1.7-1.3-3.1-3-4.1-4.9c-1.6-1.3-6.6-9-6.6-10.8l2-3c2-2,1-3-5-6c-6-4-13-10-15-15v-8l-1-4l-23,10c-21.1,9.3-42.2,19-63,29
	c-29.4,11-56.8,26.9-81,47l-5,4c-4,0-13-34-17-64v-47c5-20,18-35,35-40c22.5-3.7,45.4,2.5,63,17c7,8,10,14,14,31l4,14
	c7,16,25,20,31,7l3-4c3,1,14,2,18,1c5-2,11-7,13-11l1-8v-6l3,3c5,3,13,6,19,7c4,1,5,1,9-3l6-7c1-4,1-4,2-1c0,2,1,3,3,4c3,1,4,1,8-2
	c3-1,5-3,6-5c3-5,2-12,0-16l-2-3l3-2c5-3,10-11,10-16s-3-7-13-9c-10-1-20-5-19-7l4-2l12-9l5,2l7,3c5,0,10-4,13-9c2-4,2-5,1-8
	s-2-5-4-6c-3-3-9-5-10-4c-3,2,3-9,8-14l4-7l2-2c0,0,0,0,0,0c0.5-0.8,1.3-1.6,2-2c0.1-0.1,0.3-0.2,0.4-0.3c0.1-0.1,0.3-0.2,0.4-0.3
	L674,288c0-0.1,0-0.2,0-0.2c-0.1-0.1-0.2-0.1-0.3-0.2c-0.3-0.1-0.7-0.3-1-0.5c0.3,0.1,0.5,0.2,0.8,0.3c0,0,0,0,0,0
	c-0.8-0.3-1.4-0.7-2.1-1.2c0,0,0,0-0.1,0c0,0,0,0,0,0c0,0,0,0-0.1,0l0,0c-0.1-0.1-0.2-0.1-0.3-0.2c0,0,0,0,0,0l-5-3l-4-3
	c-2,0-2-2-1-6c0-10-5-17-15-17c-6,0-7,1-15,12l-8,8c-2,1-6-3-7-8c-3-8-3-8,4-9c14-3,20-6,23-13c5-9-2-21-14-22c-2,0-4-1-3-2l5-3
	c9-4,4-4-8,0l-4,2l3-5c5-5,5-10,2-16c-2-5-7-7-13-7l-5-1l1-3c2-2,2-2-1-5l-2-3l1,3v6c-1,3-1,3-2-2l-1-8c1-3-3-9-8-11c-4-2-6-3-12-3
	l-9,1c-4,2-3,2-2-7c2-6,2-9,1-11l-0.3-1.1c-0.1-0.1-0.1-0.2-0.2-0.4c-0.1-0.3-0.2-1.1-0.3-1.6L571,146l0.1,0
	c-0.4-0.6-0.8-1.2-1.3-1.9c-0.7-1.2-1.7-2.2-2.5-3.3c-2.3-0.2-6.9,2.8-12.3,8.2l-5,5v-5l3-11v-13h-7l-9,2l-10,8l-8,8v-10
	c-1-1,0-3,1-4l5-6c2-5,2-9,0-15c-1-3,8,5,11,10l3,6c0,2,1,2,3-1c2-6-6-15-16-19c-7-3-11-3-17-1c-8,2-8,2-8-2c-1-4-4-7-8-9
	c-5-3-10-3-14-1c-3,2-5,0-3-2c2-1,2-1-2-4s-12-4-17-3h-3l2-6c0-3,0-4-3-6c-3-4-7-4-11-2c-7,4-12,10-14,19l-3,6c-2,0-2,0-2-4l-5-11
	l-3-6l2-3c4-3,9-4,15-2c2,1,4,2,5,1c2-2-7-7-13-7l-7,2c-4,2-5,3-5,6l-1,2l-5-1c-4,0-5,0-10,5c-6,7-7,6-1-2c4-5,5-6,5-10s-3-11-6-14
	c-6-5-17-6-23-2c-6,5-10,12-9,18c1,3,7,11,10,11l1,1c0,2-1,2-3,0l-12-10h-4l-4-2c-6-6-20-6-23,0c-1,3,0,3,4,2c5-2,11-2,14,1l3,2
	l-3,5l-3,11l-1,5l-3-5c-2-6-5-10-10-14c-3-3-4-3-9-3c-7,0-9,2-8,10l1,5l-4-2c-7-3-18,1-18,7c0,2,0,2-2-1c-3-3-8-3-14,0
	c-5,2-9,7-10,13l-1,5l-6-2c-13-5-25,0-25,10c0,6,4,12,10,16s7,6,7,13v4l-4-4c-3-1-8-6-12-10c-4.6-4.6-7.5-5.8-11-7.5
	c-0.6-0.2-1.1-0.3-1.7-0.5c-1.2-0.1-2.2-0.3-2.9-0.6c-1.3-0.2-2.5-0.1-3.8,0.3c-5.7,2-2.3,5.7-2.3,9.4c0,0.1,0,0.3,0,0.4L214,154
	l-6-5c-7-6-12-8-16-6c-0.1,0-0.1,0-0.2,0.1c-0.1,0.2-0.2,0.4-0.4,0.5c0,0.1-0.1,0.1-0.1,0.1c-0.2,0.8-0.3,1-0.5,2.3
	c-0.1,0.7-0.1,1.6-0.1,2.5c0.2,0.9,0.3,2.2,0.3,3.5l1,11l2,6l-7-1c-6-2-7-2-11,0c-6,2-10,6-14,12c-2,5-2,5-1,11l1,7l-5-2
	c-6-3-14-3-19-1c-6,5-8,18-3,22l3,3h-3c-3,0-4,1-2,3c2,1,3,3,1,2s-9,2-12,6c-8,8-6,21,4,26c3,2,19,4,24,5c2,0,1,3-1,8c-3,6-7,9-12,9
	l-4,1l-6-10l-7-12c-2-4-9-3-14,1c-5,5-6,14-2,19c1,1,1,2-3,3l-4,1l-3,4c-2,3-2,4-1,9l4,8c3,3,7,8,10,14c1,1-1,1-3,1c-7,1-12,5-12,13
	c0,10,12,17,21,11l5-2l9,6l8,4l-7,4l-12,5c-16,4-19,13-8,24l4,5l5-1h6l-2,4l-1,11c1,9,2,11,7,9c4-2,4-1,9,3c6,5,11,6,18,3l11-5l5-4
	v5c2,10,7,16,19,19c6,2,8,2,11,1c4-1,4-1,4,1c0,4,4,8,7,9c10,3,22-7,26-22c6-22,10-29,19-39c7-7,12-11,26-17c15-7,17-7,32,0
	c16,8,24,16,31,31l5,9c13.6,25,18.5,53.9,14,82c-1,11-7,40-8,39l2-11c5-26,6-44,4-61c-2-13-4-21-5-20c1.3,9.6,2,19.3,2,29
	c0,13,0,15-3,29c-5,17-7,25-8,24l4-17c4-16,6-30,5-30c-4,19.1-9.7,37.9-17,56c11.9-36.8,15.3-75.7,10-114c1.9,34.8-3.9,69.7-17,102
	l-3,5c-29.7-31.8-67.3-55.3-109-68l-36-17c-5-3-5-1,0,3c6,4,13,7,40,19c44,18,62,29,84,49c8,8,8,9-1,2c-19-16-43-29-78-42
	c23.2,10,45.6,21.7,67,35l15,11c18.2,18.3,33.7,39.2,46,62l6,13c0,3-1,2-4-2c-6-8-19-21-29-28c-31-23-59-36-105-48
	c-56-16-79-24-85-28l-2-2l5-5l7-9l3-4l14,7c22,10,34,15,63,24c40,12,59,20,83,37l19,14l7,7l-6-7c-12-14-34-29-56-39
	c-11-5-21-8-62-21c-18-7-40-15-51-21l-8-4l6-6c10-10,15-20,12-22c0,0-3,2-5,6c-3,6-15,20-17,20l-0.2-0.8c-0.5,0.9-1.1,1.7-1.8,2.5
	c-0.1,0.8-0.5,1-1,1c-0.4,0.4-0.8,0.7-1.3,1.1l0.3,0.3l-7,9c-9,9-10,11-7,13c2,2,2,2-1,5l-4,5c-0.5,1.1-0.8,1.6-2-0.2
	c0.3,1.3,0.2,2.6-0.2,3.9l0.2,0.3l-0.5,0.8c-0.6,1.6-1.7,3.1-2.9,4.4l-9.2,13.8c-0.3,0.6-0.6,1.1-1,1.7c-2,2.7-4.6,5.3-7.5,7.5
	c-1.8,1.7-2.6,2.4-3.8,2.4c-0.8,0.4-1.7,0.8-2.5,1.2c-0.2,0.4-0.4,0.9-0.5,1.3c0,0,0,0,0,0l2,1l-2,1l-0.7-0.4
	c-0.2,0.4-0.4,0.9-0.6,1.3c3.8,1.7,6.4,2.4,10.3,3l8,2c0.9,0.9-0.8,3.7-9.5,14.2c-0.1,2.1-0.7,4.1-1.8,6c1.6-2.8,0.4,0.1,0.2,0.9
	c-0.3,1.1-0.6,2.1-0.9,3.2c-0.7,2.5-1.6,5-2.5,7.5c-0.9,2.8-2.1,5.5-2.9,8.3c0,0.1-0.1,0.2-0.1,0.3c0.2-0.5,0.4-1-0.1,1.4
	c-0.2,1-0.8,2.1-1.2,3c-0.6,1.6-1.1,3.1-1.6,4.6c0,0,0,0.1,0,0.1c-0.2,0.6-0.4,1.2-0.6,1.7c-0.1,1-0.2,2.1-0.6,3.1
	c0.2,0.2,0.3,0.4,0.5,0.6c0,3-3,8-5,8c-0.1-0.1-0.1-0.1-0.2-0.2c-0.1,0.1-0.1,0.2-0.2,0.3c-1.2,1.7-2.5,3.5-3.7,5.4
	c-1.2,2.3-2.2,4.7-3.9,6.8c-1.1,1.4-2.3,2.6-3.6,3.7c1.3,0,2.8,0,4.5,0h11l0.2,0.2c0.4,0,0.7,0,1.1,0c1.8,0.1,3.5,0.3,5.3,0.6
	c-1-0.2-0.9-0.2,0.2-0.1c1,0.1,2,0.1,3.1,0.1c-0.3-0.3-0.6-0.6-0.8-0.9h8c1.6,0.2,2.9,0.4,4,0.6c0.8,0,1.5,0,2.3,0
	c1.9,0.1,3.8,0.3,5.7,0.4l0,0h6.9c3.9-0.7,7.9-0.9,12-0.9l1.1-0.1l0.1,0.1c2.5,0,4.9,0,7.2,0.1c3.7,0,7.3,0.5,10.8,1
	c0.2,0,0.3,0,0.5,0c1.9,0,4.2,0.3,6.2,0.6c1.2-0.7,5.1-0.1,12.2,1.2c24.8,4.7,49.2,11.4,73,20l15,6c25,9,44,19,54,28l5,5l-0.3-0.1
	c0.5,0.4,0.9,0.7,1.4,1.1c1.2,1,2.4,1.7,3.7,2.9c0.5,0.4,0.8,1,0.8,1.6l7.4,7.4c-0.1,0-0.1,0-0.2,0c2.5,1.8,4.2,5,5.9,7.5
	c0.2,0.2,0.3,0.5,0.5,0.7c0.6,0.7,1.2,1.4,1.5,2.2c1.4,1.9,2.7,3.8,3.6,6c0.1,0.2,0.2,0.4,0.2,0.6l2.4,4l2,5l-1.1-0.6
	c0.5,1,0.9,2.1,1.2,3.1c16.2,2.1,32.6,2.3,48.9,0.5c0.2,0,0.3,0,0.5,0c0.5-1.1,1.2-2.1,1.9-3L408,715l3-5l2-5l0.1,0
	c0.5-1.3,1.1-2.5,1.9-3.6c0.2-0.8,0.9-2.2,2-4.4c0.8-1.7,1.7-2.8,3.2-3.7c0.7-1.7,1.7-3.2,2.9-4.4c-0.6-0.9,1.8-3.8,6.9-8.9
	c11-10,18-15,37-25c27.7-12.2,56.5-22,86-29c0.1,0.1,0.2,0.2,0.3,0.3c1.2-0.6,2.4-1,3.7-1.2c0,0,0,0,0,0c17-4.5,34.4-7.5,52-9
	c-0.8,0.6-1.6,1.2-2.5,1.7c4.1-0.8,8.1-1.7,12.3-2.1c1-0.2,2-0.4,3.2-0.6h6c0,0.1-0.1,0.4-0.4,0.7c2.2,0.1,4.3,0.2,6.5,0.4
	c1.6-0.9,2.7-1,3.9-1c1.2,0,1.7,0,0.6,1.2c0.5,0,0.9,0,1.4,0.1c2.5,0.1,5,0.1,7.6,0.1l1.4-1.4h15c0.8-0.2,1.7-0.3,2.6-0.3
	c0.3,0,3.6-0.1,2.9-0.1c1.1-0.1,2.2-0.3,3.2-0.4l0.2-0.3h21L690,607z M644,520c2,2,4,4,3,5l-47,9c-56,10-72,14-100,23
	c-24,8-35,13-50,23c-21,13-37,27-47,42l-10,19l-4,7c9.2-28.7,28.4-53.1,54-69c25-18,60-31,118-44c43-9,70-16,70-18
	c-17.3,3.4-34.7,6.7-52,10c-82,18-119,33-152,60c-11,9-11,9-9,5c4-8,22-23,37-31c21-13,44-21,104-36c23-6,57-17,68-21l7-3l3,7
	L644,520z M423,518c2,5,2,6,0,7c-1,1-4-3-7-15c-4-12-6-20-7-30v-9l3,13C417,501,420,512,423,518z M185,353c-8,3-17,8-21,13
	c-1,1-3,3-4,2l-12-3c0-1,2-5,6-9c4-6,6-8,10-10c5-2,6-2,27-2l21,1l-1,1L185,353z M207,352l-3,4l-7,8l-8,11l-5,8l-16-12
	c-2-1,6-8,14-11C191,355,204,351,207,352z M158,373l-5,7c-3,4-6,6-7,6l-12-4c0,0,6-10,8-11h9L158,373z M170,331c-4,0-28-8-28-9l16-8
	c6-4,10-5,17-6l13-1c4,0,5,0,8,4l4,5h-4c-3,0-6,1-11,5l-11,8C173,330,171,332,170,331z M158,310c0,0-11,8-17,10c-2,2-3,2-3,1
	S157,309,158,310z M132,318c-3,0-18-13-16-15l11-2c11-3,13-2,25,2c7,2,10,4,6,4l-13,5L132,318z M194,294c-4-10-5-14-5-26l1-13
	c1-1,8,3,12,7c2,2,6,7,8,12c3,6,6,9,12,14l6,7l-13,3C196,300,197,301,194,294z M323,133c-4-3-7-5-11-6l-6-2l8-5l10-7l3,2
	c2,2,2,3,2,11v10C330,139,328,138,323,133z M312,132c8,3,14,8,17,15l2,6c-6-4.5-12.8-7.9-20-10c-5-2-5-2-6-6
	C304,131,306,130,312,132z M332,159l4,22c-1,1-10-3-15-6l-6-6l-7-21c2-2,11,2,17,6L332,159z M305,150l3,12l3,9c-1,1-8-3-12-6
	c-4-2-5-4-7-8l-3-9v-4l6,1C303,146,305,147,305,150z M295,141l-6-2l-5-13c0-4,1-5,3-2l13,7l3,7C303,142,304,142,295,141z M285,149
	l2,6l1,7l1,3h1l-4,2l-7,3l-3,1l7-19L285,149z M282,173l8-4c13.1,5.9,26.4,11.2,40,16l10,6c10,9,28,26,31,31l3,5v13c0,10,0,13-2,15
	l-3,4l-40-40l1-10l2-12c0-5-2-11-4-11v14c-1,10-2,13-3,13c-2,0-5-10-6-16c-1-9-2-9-1,0l-1,7c-2,0-12-9-15-13l-3-6c0-1-6-12-7-11l2,5
	c3,6,3,7,0,6c-2,0,3,5,12,13c14,15,18,20,10,15c-7-4-14-7-24-10l-10-4l-5-10C271,178,271,178,282,173z M340,156l13-19c2-3,2-3,4-1
	c5,6,15,19,17,24c1.6,14.6,2.3,29.3,2,44l-1,7l-21-16c-7-6-10-12-13-21C338,167,338,161,340,156z M304,215c2-2,20,10,32,22
	c23,21,34,41,26,47l-4,2c-3,0-37-18-46-24c-8-6-9-6-9-10l1-14l1-16L304,215z M237,273c8,3,12,5,16,9c4,5,19,24,19,26c0,1-2,1-19-5
	c-16-6-17-6-19-10c-2-3-2-6-2-12c0-8,0-8-2-5l-2,8v6c-7.1-5.1-12.6-12-16-20c-5-8-6-10-10-13l-8-3c-6-2-5-4,2-5l9-2h7
	c5,0,20,7,26,13c5,4,12,13,10,12l-20-5C225,267,232,271,237,273z M230,222c8,18,10,24,9,25c-2,2-5,2-10-1c-14-6-18-11-22-25l-1-6
	l2-3c6-6,13-8,21-5c11,3,16,7,22,14c10,14,14,21,13,22l-10,1h-11l-8-17l-9-17C223,207,225,211,230,222z M254,212c0-2,1-2,4-3
	c5-2,15-3,20-3c3,1,4,1,5,6l7,14c8,15,9,17,9,22l-1,5c-7.6-3.1-15.3-6.1-23-9C271,242,254,217,254,212z M289,220c-3-5-4-11-2-11l8,2
	l6,2l1,8v11c0,2-1,3-2,3C299,236,293,227,289,220z M273,164c-2,6-3,9-3,6l-3-4l-8-9c-6-7-6-8-7-14c0-10,0-10,8-8l7,1l4,8
	C275,153,276,154,273,164z M274,200l-10,2l-11,2c-1,1-3-1-8-10c-8-14-8-14-2-13l14,1c7,0,8,0,10,3L274,200z M237,177l-9-2l4,3l5,4
	l5,11l5,12l-2,1l-17-6c-4-3-7-11-8-33c-1-7-1-7,4-3l13,4l23,10L237,177z M221,202l-12,3l-10,4c-3-1-3,2,0,4c2,2,4,5,5,11l4,10
	c0,2-1,2-9-2l-14-10l-6-6l3-7l4-11l1-5l12-1c11-1,11,0,18,6L221,202z M184,229l-6,2l-13,4c-9,4-11,3-17-4c-6-6-7-7-3-7
	c8.5-2.5,17.2-4.5,26-6l7,5L184,229z M158,241l7-1l3-1c1,1,3,7,2,8l1,5l4,11l2,7l-5-3l-9-7c-6-2-6-3-6-6l-1-8l-2-6L158,241z
	 M182,251h4l-1,8l-1,12l-1,4l-1-3c-1-4.1-2.3-8.1-4-12C176,251,176,251,182,251z M174,243l-1-5c0-1,9-4,15-4c4,0,18,6,18,8l-19,3
	C175,247,175,247,174,243z M223,304c19.4-0.5,38.5,4.7,55,15c11,5,30,15,36,20l11,6l5,4c10.1,5.3,19.8,11.3,29,18l5,3c3,0,6-5,8-11
	l3-6l-4,19c-1,3,0,7,2,7l2-8c1.9-18.3,1.3-36.9-2-55c-1-6-2-7-10-15c-9-9-22-18-34-23c-7-4-8-4-20-4c-15,0-19,1-30,11l-8,7l-6-9
	c-11-13-22-30-22-32c0-3,3-4,14-3c14,1,23,4,44,17l20,9c9,3,13,4,29,13c14,7,16,7,20,1l3-12c0-6,0-6,1-4c1,3,0,11-2,17
	c-4,10-4,9-1,7l3-6c2.2,29.6,2.8,59.3,2,89c-1,3,0,5,2,12c3,10,4,17,1,8c-4-9-9-18-15-23c-11-11-33-26-43-29l-52-12
	c-27-5-49-13-61-22l-7-6C201,305,208,304,223,304z M368,327c-1-13-3-18-9-25c-8-10-8-10,0-2c11,10,12,13,13,28c0,13-1,23-4,30
	c-2,5-5,7-8,5c-1-1-1-1,1-2C367,360,370,345,368,327z M360,329l-1,14l-2,4c-20.5-11.7-41.5-22.4-63-32c-8-4-10-5-14-10
	c-6-9-6-10,0-16c7-7,13-10,18-11c15-2,44,12,55,26C359,311,360,317,360,329z M316,330.8c-8.5-4.9-17.1-9.5-26-13.8
	C299.2,320.6,307.9,325.3,316,330.8z M380,317c-0.5-17,0.2-34.1,2-51c-0.7,40.4,0.7,80.8,4,121c9.6,40.3,15,81.6,16,123l2,27
	c1,6-2,4-3-2l-2-31c-1-35-4-55-10-86c-5-19-6-31-7-56L380,317z M469,159c-2,4-3,5-8,8l-12,4l3-6l5-12l4-6l14-3L469,159z M478,148
	c1-2,2-1,4,3l3,6l-4,4c-4,3-8,5-8,2C474.8,158,476.4,153,478,148z M459,135c-2,8-2,8-8,10l-12,5c-6,3-6,3-4-5c3-8,8-11,21-14l3-1
	V135z M435,156c9-5,19-9,19-7l-8,18c-1,4-3,6-6,7l-13,6c1.5-4.9,2.5-9.9,3-15C431,159,431,159,435,156z M435,183c11-5,38-15,41-15
	c2,0,9-6,9-8c1-4,3-2,4,6c3,9,2,15-2,24c-4,8-6,10-14,13c-7,2-14,6-18,9c-3,3-3,1,1-7c4-10,13-25,19-30c5-5,5-7-1-3
	c-5,4-16,21-23,34l-5,11l-2-3c-5-4-6-10-6-20l-1-8c-1,1-2,5-1,12c0,9,0,11,3,18s3,8,2,11c-2,4-15,19-22,25c-9.3,9.5-18,19.5-26,30
	l1,3l14-14l18-17l-13,14c-15,15-18,19-19,22l-2,5c-2,1,0-13,2-20v-22c-3-25-3-26,16-48C423,189,424,189,435,183z M531,174
	c-6,3-17,4-17,3l6-4l8-5l8-3l8-2l2-1l1,14c0,16,1,14-10,20l-7,4l-1-3l1-9l2-7c-1-1-4,8-5,14c-1,5-2,7-6,7c-3,0-3,0-1-9l-1-2
	c-2,0-4,6-3,8c0,3,0,3-20,2l-7-1l4-7l3-8l15-3c18-3,25-5,26-7C538,172,538,172,531,174z M559,250c17,1,19,1,20,4c4,12,0,30-9,40
	c-4,3-4,4-11,4l-14-1c-10-1-10,0-1-16c8-14,12-18,23-23c9-4,11-5,5-4c-5,1-15,6-20,10c-2,1-6,9-10,15c-9,15-12,19-18,20l-7,2l-3,1
	l1-13c0-11-1-23-3-29c0-2,1-3,8-7c11-6,13-7,21-5L559,250z M542,242l7-4c6-3,7-4,15-3l14,2c5,1,5,1,5,5c0,5-2,5-8,4h-14
	C552,246,542,244,542,242z M637,300c7,0,12,2,12,4c0,1-11,11-15,13c-1,2-4,3-5,3l-13-6l-11-7c-1-1,1-1,13-5C628,299,630,299,637,300
	z M630,296l6-4l6-5l1,5v5h-6L630,296z M611,317l12,6l1,1l-2,1l-12,3l-17,4c-5,1-6,0-9-2l-3-2l9-9l10-8C600,311,606,313,611,317z
	 M627,384c-8,3-9,3-15-3c-9-8-9-9-4-10l8-2l5-1l4,6C630,381,631,382,627,384z M626,366c2,0,11,13,11,16s-1,2-7-8
	C625,367,624,366,626,366z M614,365l-7,1c-5,1-7,1-8-1c-2-3-14-10-21-13l-28-6l-5-1l4-1l19-1c17,0,25,2,32,6
	C604,352,615,364,614,365z M594,369l-3,1l-8,6c-6,5-7,5-7,4c0-2-13-18-18-24l-5-5l20,4C581,358,594,366,594,369z M538,339l-9,1
	l-16-2c17.8,0.5,35.6-1.1,53-5c11-3,12-3,14-1c2,3,2,3,0,4S542,340,538,339z M539,333l-30,2h-19l4-3l15-17c4-7,6-8,20-10
	c21.7-1.3,43.6,0,65,4C578.9,322.9,559.5,331.4,539,333z M407,335c-3-4-5-10-5-22c0-13,2-20,10-32c12-20,27-31,55-42l11-3
	c-1.2,7.6-1.5,15.3-1,23l1,15l-3,6c-3,6-12,20-17,25l-14,10l-20,15C414,339,411,339,407,335z M407,352l-3,2c-3-1-7-4-9-8s-2-6-2-19
	v-15l1,11l2,15c1,7,6,13,10,13C408,351,408,351,407,352z M491,242c-2,6-7,13-9,13v-21c1-3,2-3,4-3c3,0,18-6,19-8l-8,1
	c-11,4-11,4-14-6c-2-9-3-10,0-11h32l4,1v10l-6,33l-5,3l-14,8l-8,5l-2-3l4-11c4-7,5-10,5-14v-4L491,242z M482,227c0,3-2,5-13,8l-22,8
	l-12,5c3.2-4.2,6.3-8.5,9-13l10-12c3-3,21-14,23-14L482,227z M470,302l9-14l8-13c4-4,17-12,19-12c3,0,4,27,1,37l-2,4l-6,1l-14,1
	l-12,1h-5L470,302z M397,212l9-10l7-7l-7,8L397,212z M414,188l-14,13l-10,8c-0.5-9-1.1-18-2-27l-1-18l3-5l20-24c1,0,8,9,12,17
	c3,7,3,8,3,13C424,172,419,182,414,188z M388,212c-2,2-3-9-3-23l-1-17l1,12l2,20L388,212z M382,92l-6-9c-3-3-2-4,3-9c3-3,5-3,9,3
	l2,4l-4,5L382,92z M404,480c-1-29-3-39-7-57c-7-27-10-51-11-117c0.5-17,0.5-34,0-51c2,11,2,16,3,48c1,40,1,44,7,50l7,4c3,1,4,0,9-6
	l11-12l8-9l4-4l-5,6l-9,12l-10,13l-9,11l-5,6v-13c-1,0-2,2-4,9v24l5,29c7,24,8,36,9,69c1,13,2,29,4,38c0,5-1,6-2,3
	C407,529,405,505,404,480z M409,369l-9,8c0-1,6-8,14-15l19-22c12-16,27-24,48-26c16-2,20-2,20-1c-6.7,9.9-16.6,17.3-28,21l-36,15
	l-13,7L409,369z M509,372c-1-1,7-1,18-2c18,0,25-1,27-3c-15.3-0.6-30.7-1-46-1c-8,0-9-1-18-5c-16-8-32-11-39-8l2,1l16,2
	c-1,1-5,0-10-1h-16c-7,2-16,6-22,12c-7,5-8,5-2-1c11-11,20-14,48-19c16-2,43-2,53,0l10,1c3,0,6,1,14,5l14,11l17,24l-29,1
	c-6-1-11-2-18-5C518,380,509,374,509,372z M554,436c-3,3-8,3-12,0c-7-4-10-11-13-24l-5-17l-2-7l2,1c12,4,14,6,23,22
	C557,429,558,432,554,436z M579,428c-2,1-11,1-15-1c-6.9-10.1-13.9-20.1-21-30l-2-4l8,1c8,0,9,1,12,3l7,10l8,13
	C579,425,580,427,579,428z M586,423l-3,3l-20-32c1-1,15,0,17,1l6,4c4,4,4,4,4,10C590,417,589,420,586,423z M593,397c-3,0-5-3-12-12
	c-1-1,0-2,7-7l8-7l5,6l9,10l5,4l-10,3L593,397z M626,409c-4,3-11,4-17,2l-9-5l-5-4l10-3c17-5,19-6,22-4l4,3C632,401,629,407,626,409
	z M646,402c-2,3-6,3-8,1l-2-5c0-3-1-4-5-6l-5-2l3-1c5-4,6-4,7,0c0,3,3,3,4-1c0-3,0-3,3-1C648,389,650,397,646,402z M648,364
	c8,1,9,2,6,8c0,2-3,5-4,6l-4,4l-7-8l-7-9C632,363,640,362,648,364z M631,358c1,1,1,2-3,2c-9,3-8,3-14-4l-6-6L631,358z M643,329v4
	c0,3-4,7-12,12c-4,2-8,4-9,3l-30-9c6.4-1.9,12.7-3.9,19-6c12-4,16-5,24-5C642,328,644,328,643,329z M636,322c-1-2,15-16,18-17l3,1
	l-9,14L636,322z M663,337c-4,2-7,2-11,0c-3-2-3-2-3-6c1-5,2-7,6-8C665,321,671,332,663,337z M660,285c3,2,3,3,4,6l-2,6c-1,2-2,3-5,2
	c-7,0-9-1-10-7v-6C651,284,656,283,660,285z M646,262c8,0,12,9,7,14c-3,3-5,3-10,0C634,269,636,262,646,262z M630,275c4-4,5-5,5-3
	l3,5l3,4c-3.7-0.3-7.3-0.6-11-1l-4-1L630,275z M617,286l3-3l7,1c9,2,10,3,6,6l-12,6l-13,3C608,297,614,289,617,286z M615,278
	c1,2,1,3-4,8l-9,11c-3,4-3,5-7,4l-21-2c2.9-3.9,5.6-7.9,8-12c7-13,15-20,25-23l2,1C609,267,612,274,615,278z M587,249l-1-6
	c0-4,0-5,2-4l6,1l5,2l-5,9l-6,15l-2,6l-2-15c0-5,0-5,2-5l2-2L587,249z M605,241l4-4l3-2l-1,4l-1,12v7l-5,2l-9,5l-5,1L605,241z
	 M611,231l-6,4c-2,2-7,2-14,0c-8-3-18-4-23-5h-5l8-7l10-6l30,6C619,223,619,227,611,231z M623,230c6-2,12,1,15,7c3,7-1,12-12,16
	l-9,2c-2,1-2,0-2-8C616,236,618,231,623,230z M607,199h7c4,1,7,6,7,10c0,3-2,5-5,7s-6,2-17,0l-9-2l6-6C600,204,604,200,607,199z
	 M598,187c2,6,1,9-3,14l-7,8c-3,3-6,3-7,2l-1-9v-9l4-1l12-6C597,184,597,184,598,187z M583,180c4-8,5-9,9-7l4,4c1,4-1,6-8,9
	C579,189,578,188,583,180z M575,173h6l-3,7c-3,6-4,8-5,7l-7-1h-7l2-2C565,178,571,174,575,173z M551,165c0-7,1-7,4-11l11-6l1,3
	c1,5-1,16-4,21l-7,10l-5,5V165z M557,190l7,1c12,1,11,1,11,10c-1,10-3,14-8,18c-4,5-18,14-20,14l3-10c2-7,4-10,6-12l3-3l-3,1
	c-3,1-3,0-4-2c-2-4-2-4-2-1c-1,1-2,3-4,3c-2,2-3,3,0,5v6l-4,10c-2,6-3,6-11,10l-9,4c-3,0-3-4-1-15l2-15c0-7,0-7,3-8c6-1,9-3,20-9
	L557,190z M544,132l6-2l-5,26l-4,4l-5,2h-1l2-4c0-2,0-2-3,1l-3,3v-2l3-11C538,134,537,134,544,132z M532,139l-6,22c-1,2-16,13-23,17
	l-4,2c-2,0-1-3,1-5l14-17C525,143,531,136,532,139z M506,109c7-3,14-1,16,3c1,2-1,8-4,11c-4,4-8,2-12-7l-3-5L506,109z M500,124
	c0-6,1-6,4-1c2,3,3,5,2,6l-3,1C500,131,499,130,500,124z M509,133c5-2,6-1,6,7c0,6,0,7-7,16l-9,12l-3,2l-2-8c-1-9-1-13,3-21
	C499,138,502,136,509,133z M496,117l-1,10c0,7,0,8-3,15l-4,8c-1-1-7-9-7-11c0-1,3-17,5-21c0-2,2-3,8-4l4-1L496,117z M480,95h7
	c4,1,6,3,8,8l2,4l-5,2c-6,2-7,2-10,0C477,106,476,98,480,95z M480,115c2,1,2,2-1,11c-4,12-4,12-6,13l-7,2l-5,1l1-3c1-8,1-9,7-11l5-2
	l-5-1l-5,1l7-6C478,113,478,113,480,115z M470,117l-7,7c-3,0,1-11,5-14l6-1C476,111,476,111,470,117z M462,88c7,0,8,0,9,5
	c1,4,0,8-2,10s-7,3-11,2l-4-3C449,96,454,88,462,88z M459,110h4l-4,8l-3-3c-3-3-10-6-12-6l7,7l8,9c0,1-2,2-7,3l-9,2c-2,1-1-1,2-8
	l3-7l-6,10l-6,11c-0.8-5.4-1.8-10.7-3-16c0-3,0-3,4-6l5-5l2-5l2-3l2,3C451,108,454,110,459,110z M435,82c5-9,12-12,15-7c1,4,0,7-3,7
	l-7,1l-5,2C433,86,433,86,435,82z M431,95c2-5,6-8,17-10h3l-4,6l-9,12c-6,8-6,8-6,5C430,102,430,99,431,95z M430,120l1,9v16
	c-2,10-2,10-6,2l-7-12l-4-4l8-6L430,120z M424,96c2,0,4,17,3,19c-6.7,4.9-13.4,9.9-20,15c-2,1-2,1-2-5l3-13c4-9,3-9-1-1l-4,15
	c-1,8-1,9-4,13l-9,10l-5,5v-13c1-16,1-17,11-28c6-6,9-8,17-12L424,96z M404,76h5c4,2,7,8,8,12v4l-6,3l-7,4c-1.5-4.7-3.2-9.4-5-14
	c-1-3-1-3-3-1l-1,1C395,83,401,77,404,76z M391,90l4-3l4,14l-2,3l-12,12v-8C385,98,386,95,391,90z M372,72l-2-3c-7-10,6-25,17-19
	c7,4,9,13,5,19l-1,3l-4-3c-4-3-6-3-10,0L372,72z M367,96l2-10c2,1.7,4,3.3,6,5l5,6l1,11l-1,11c-3.2-3.8-6.5-7.5-10-11l-4-4L367,96z
	 M353,73c2-1,9,3,11,6l1,7l-2,9l-2,4l-5-2c-2-1-6-3-7-5c-2-2-2-3-2-6C348,81,351,74,353,73z M340,105c1-10,2-11,3-10l9,6
	c8,5,22,18,25,25c2,3,2,7,3,15v12c-1,3-1,3-4-2l-9-11c-7-8-8-9-8-17c-1-4-5-16-6-15l2,6c2,6,3,13,1,14c-5.6-3.5-11.3-6.8-17-10
	C338,117,338,115,340,105z M341,125l8,6l-2,5l-8,11l-4,7c-1.8-9.9-2.5-20-2-30v-4L341,125z M335,108l-2,6l-14-17l-1-6c0-3,0-3,4-3
	s9,1,12,4C336,94,336,100,335,108z M316,78c1-5,3-6,7-4c3,1,8,7,11,12c1,2,1,2-3-1c-5-2-15-3-14-1l-1,2l-1-2L316,78z M316,103
	c0-3,2-1,4,3l3,5l-8,4l-8,5l-5-6l-4-6h5c4,1,6,0,9-2L316,103z M297,88c4-2,9-2,12,1c5,5,3,12-3,15h-4c-5-1-7-2-8-6S294,89,297,88z
	 M290,112l3-3l3,3c5,6,7,11,7,12c-1,2-2,2-8-1l-7-6C287,115,287,114,290,112z M270,101c3-8,11-12,15-7l3,7c0,6,0,7-2,7l-3,2
	c-2,1-2,1-8-1C268,107,267,106,270,101z M274,115c6,1,7,1,8,4l1,13l-1,13l-3,4l-4-7c-3-4-4-8-4-12l-3-11l-2-5L274,115z M264,120l1,7
	c-1,3-1,3-4,2l-5-1l7-12L264,120z M245,125c-6-3-9-8-7-12s7-7,12-6s9,2,9,4l-4,8l-5,8L245,125z M243,148c10,9,23,24,23,27
	c0,1-1,1-6-2l-12-6l-8-5l-5-21L243,148z M226,134c3,3,5,8,7,21l1,8c-1,1-10-3-12-5v-1l2-1l-3-1c-2,0-2,0-3-5l-2-13l-1-7
	C216,129,223,132,226,134z M198,149c2,0,14,10,16,13l2,14l1,13l-1,1l-9-9c-8-10-10-14-10-26C196,151,197,149,198,149z M185,173
	c5,0,11,3,16,8l5,6h-10c-9,0-10-1-10-2l-3-7l-2-5H185z M169,179c2-3,5-5,7-5l6,12c0,1-6,1-11-1C166,184,166,184,169,179z M164,189
	l3,1l9,2l6,2c0,3-3,9-5,13l-4,4c-2,0-8-10-9-17V189z M137,210c0-3,2-9,5-10c6-4,15,1,21,9c4,5,3,5-6,7C144,219,139,217,137,210z
	 M151,257l-22-4l-4-5c-4-7-1-15,6-17c10-4,21,9,21,24C152,256,152,258,151,257z M151,275l5-9c0-3,0-3,2-3c9,3,19,13,26,27l5,9l-3,1
	l-11,1l-8,1l-5-6l-10-10l-5-6L151,275z M144,284c2,0,7,5,11,10l2,4c-6-1-17-5-20-7l-4-4L144,284z M135,295l-6,2l-7,1l-1-5
	c0-5,1-6,2-6c2,0,6,2,9,5L135,295z M128,278l1,2c0,1-1,2-4,2h-3l2-3C126,277,127,277,128,278z M114,261c3-1,4-1,5,1l3,6c1,4,1,4-2,7
	c-4,4-5,4-8,2C104,273,106,264,114,261z M103,300c-5-2-5-9-2-12c4-3,12-4,14-2c3,2,2,9,0,12C113,300,106,301,103,300z M112,336
	c-5,4-12,3-14-4c-2-4,3-9,9-9c4,0,8,4,8,7S114,334,112,336z M107,306c1-2,3-2,11,6l11,8l1,2c-1,1-7,2-10,1C116,321,106,309,107,306z
	 M120,327l1,1l-1,1l-1-1L120,327z M127,340c-5-3-7-5-7-7l8-4c7-2,7-2,13-1c8,3.1,16,6.1,24,9c4,1,3,2-8,5C140,346,137,346,127,340z
	 M146,350l6-1l-2,3l-5,6c-1,3-3,5-4,4l-15-3C125,358,140,352,146,350z M123,373c-3,6-4,8-6,8c-3,1-7-2-9-5c-2-4-1-7,1-9s4-3,10-3
	l8,1L123,373z M128,374l3-8l4,1c4,0,4,0-4,9l-6,8L128,374z M132,400c-3,6-3,6-5,4c-2-3-2-11,1-15c2-4,3-4,10-1l4,2l-4,3
	C136,394,133,397,132,400z M165,405l-9,6c-14,6-26-4-16-13c4-4,5-4,15-1l8,3l4,1l2,1L165,405z M158,393l-9-2l8-8c8-10,7-9,19-1l6,5
	l-3,4c-3,4-4,5-7,5C167.3,394.9,162.7,393.9,158,393z M182,424c-4-4-6-7-7-15v-6l10-10l16,2c1,0-7,19-12,27l-3,5L182,424z M204,426
	c-1,1-3,2-8,2c-7,1-9,0-7-2l8-15l9-15l9-1h8l-3,5l-8,14L204,426z M242,392c-2.4,5.9-4.4,11.9-6,18c-4,14-7,21-12,25s-12,5-15,2l-2-5
	l17-33c3-4,5-5,11-7l8-2L242,392z M270,363c-9,4-27,6-39,5l-8-1l6,2c4,2,8,2,17,2l11,1c0,4-15,13-27,16c-4,1-11,2-24,2h-19l2-4
	c11-18,18-27,28-33c8-6,10-6,17-6c15,0,45,4,50,7L270,363z M115,523c7.8-10.1,14.8-20.8,21-32l4-7c21,9.1,42.8,16.5,65,22
	c55,15,78,24,106,40c34,19,58,47,62,74c4,18,3,23-1,12c-2-7-8-19-16-31l-15-21l3,5l7,10c2,3,1,3-5-4c-20-22-30-30-54-42
	c-19-9-41-16-72-22c-15-4-78-13-79-12c-2,0,25,6,57,11c55,9,70,14,94,26c21,10,28,15,46,34c14.6,12.8,25.9,28.9,33,47c3,5,4,9,4,11
	c-1,4-1,3-3-3c-11.6-31.6-33.9-58.1-63-75c-23-15-63-27-120-35c-47-7-63-9-57-6l59,10c51,7,79,14,105,27c10,5,20,12,23,15
	c-23.2-14.8-49-25.3-76-31l-50-9L115,523z M326,583l-3-2l-2-2l3,2L326,583z M205,619c-2-1-2-1,0-1l5,1H205z M330,669
	c-9-9-13-12-22-17c-15-9-31-15-47-20c5,0.9,10,1.9,15,3c18,6,38,17,48,24c6,5,19,18,19,20S341,679,330,669z M345,672
	c-4-5-16-16-23-21c-31-18.3-65.3-30.2-101-35c34,4,61,11,83,22c10,5,24,14,31,20c5,5,13,14,13,16C348,675,346,674,345,672z M353,662
	c-22-32-60-54-109-61c-26-4-48-5-85-3c8.3-1.2,16.6-2.2,25-3c49-1,88,5,118,20c22,12,38,25,52,45l4,7C357,669,356,667,353,662z
	 M370,663l-8,3c-2,1-2,0-2-1c0-4-12-20-21-29c-18-18-42-30-76-39c-39-10-89-10-147-1l-18,3c-6,1-6,1,0-6l7-17l4-13h7c7,0,10-1,10-3
	h-8c-11,0-12-1-8-5l11-18c21.5,4.1,43.2,7.1,65,9c47,5,82,14,108,26c20,9,44,29,57,46c12,17,26,39,26,42L370,663z M382,537l-1,18
	c-2,0-1-32,1-52c5-46,1-77-13-105c-9-19-21-31-43-42c-7-4-27-11-28-10c20.7,7.2,39.7,18.4,56,33c12,13,20,36,24,68c3,24-1,69-10,104
	l-4,12l4-24c11-51,11-87,0-121c-5-15-13-32-19-38c-3-4-4-4-2-1c8,11,17,33,23,57c5.2,32.2,2.1,65.3-9,96l3-21
	c8.5-29.6,7.1-61.2-4-90c-13-36-15-40-25-50c-6-7-11-11-22-16c-26-13-46-17-80-16c-18,1-51-1-55-2c-2-1-2-2,4-7c7-6,14-9,19-8l13,5
	c17,7,24,8,38,10c28,2,43,5,62,12c18,6,36,17,47,27c13,14,23,43,26,79c1,13,0,28-3,53L382,537z M389,611
	c2.7-14.2,8.3-27.7,16.5-39.5L402,576c-9,13-8,13-7,8c13.1-40.5,41.9-74,80-93c15-8,22-12,55-26c43-18,61-27,66-32c2-3,3-3,2,1
	c-1,2-1,3,1,7c2,5,11,14,15,17l2,1l-3,2c-28.6,17.1-58.7,31.5-90,43c-21,8-39,15-50,21c-12,6-30,18-37,25c25.8-17,53.7-30.4,83-40
	c41-17,65-28,87-41l10-5l1,2c0,3,10,16,14,19l3,2l-4,2c-7,3-27,9-53,15c-67,17-95,26-124,43c-28,15-46,34-58,59l-6,13c0,2,2-2,6-9
	c7-15,14-23,25-34c10-11,20-18,37-27c28-16,55-25,116-40l45-12l17-5c3-1,2,3,0,5c-17,6-47,16-89,27l-30,8c-40,13-77,34-94,52
	c-9,10-25,31-29,40l-5,10C386,639,388,619,389,611z M429,659c19-18,48-34,77-39c12-3,26-4,33-4c-31.9,2.8-62.8,13.1-90,30l-20,16
	C417,673,417,672,429,659z M427,646l2-3l3-2L427,646z M562,618c-28,4-60,12-80,21c-21,8-39,19-52,31l-8,8c-2,0-1-2,4-6
	c17.7-17.3,38.8-30.5,62-39c22-8,56-15,74-16h9L562,618z M674,600c-41-6-82.6-7.7-124-5c-49,3-83,16-109,38c-6,5-7,6-5,3l21-18
	c13-9,39-19,58-23c26-6,51-7,102-5h41c2-2-7-4-42-6c-59-3-114,5-146,22c-23,11-46,33-58,54l-4,7l-5-2l-9-3l-5-2c0-2,14-23,22-33
	c23-29,65-52,118-67c18-5,31-8,67-14l40-7l9-1c1,0,7,6,9,11c-13.6,1.8-27.3,3.5-41,5c7,0.3,14,0.3,21,0h24l2,3
	c-44.4,1.5-88.6,6.8-132,16c-26,6-55,19-74,31c-15,10-33,30-43,46c-6,11-6,13,0,3c32-49,82-75,166-85l67-5l16-1l1,6c3,9,9,22,14,27
	l3,5H674z"></path>
<path d="M200,585c56,4,100,16,126,37l5,4l-9-9c-9-6-32-18-44-22c-53.3-15.4-109.4-18.5-164-9h33C173,584,184,584,200,585z"></path>
<path d="M206,517c-20.6-6.3-41.7-11-63-14L206,517z"></path>
<path d="M405.5,571.5l6.5-8.5C409.7,565.7,407.5,568.5,405.5,571.5z"></path>
<path d="M603,489c5-1.2,10-2.5,15-4C625,482,619,484,603,489z"></path>
<path d="M457,524c0,1,7-3,10-6l-7,4L457,524z"></path>
<polygon points="470,516 474,515 478,512 "></polygon>
<polygon points="583,496 579,497 582,497 "></polygon>
<polygon points="451,528 453,528 455,526 "></polygon>
</svg></svg></g></g><defs><clipPath id="SvgjsClipPath1044"><rect width="1000" height="1000" x="0" y="0" rx="300" ry="300"></rect></clipPath></defs></svg></g></svg>